<?xml version="1.0" encoding="UTF-8" standalone="no"?>
<svg
   xmlns:dc="http://purl.org/dc/elements/1.1/"
   xmlns:cc="http://creativecommons.org/ns#"
   xmlns:rdf="http://www.w3.org/1999/02/22-rdf-syntax-ns#"
   xmlns:svg="http://www.w3.org/2000/svg"
   xmlns="http://www.w3.org/2000/svg"
   version="1.1"
   id="svg2"
   viewBox="0 0 750.09449 750.00001"
   height="750"
   width="750.09448">
  <defs
     id="defs4" />
  <metadata
     id="metadata7">
    <rdf:RDF>
      <cc:Work
         rdf:about="">
        <dc:format>image/svg+xml</dc:format>
        <dc:type
           rdf:resource="http://purl.org/dc/dcmitype/StillImage" />
        <dc:title></dc:title>
      </cc:Work>
    </rdf:RDF>
  </metadata>
  <g
     transform="translate(0,-302.36216)"
     id="layer1">
    <g
       style="fill:#ffffff"
       transform="matrix(1.2499994,0,0,1.2499994,60.000697,405.39805)"
       id="g4150">
      <path
         style="fill:#ffffff"
         d="m 164.96094,300.00391 0.0234,0 c 0.0195,0 0.0391,-0.004 0.0586,-0.004 L 437,300 c 6.69531,0 12.58203,-4.44141 14.42187,-10.87891 l 60,-209.999996 C 512.71484,74.59375 511.80859,69.726562 508.97656,65.96875 506.14062,62.210938 501.70703,60 497,60 L 130.36719,60 119.64453,11.746094 C 118.11719,4.882812 112.03125,0 105,0 L 15,0 C 6.714844,0 0,6.714844 0,15 0,23.285156 6.714844,30 15,30 l 77.96875,0 c 1.898438,8.550781 51.3125,230.91797 54.15625,243.71094 C 131.18359,280.64062 120,296.53516 120,315 c 0,24.8125 20.1875,45 45,45 l 272,0 c 8.28516,0 15,-6.71484 15,-15 0,-8.28516 -6.71484,-15 -15,-15 l -272,0 c -8.26953,0 -15,-6.73047 -15,-15 0,-8.25781 6.70703,-14.97656 14.96094,-14.99609 z M 477.11328,90 l -51.42969,180 -248.65234,0 -40,-180 z m 0,0"
         id="path4138" />
      <path
         style="fill:#ffffff"
         d="m 150,405 c 0,24.8125 20.1875,45 45,45 24.8125,0 45,-20.1875 45,-45 0,-24.8125 -20.1875,-45 -45,-45 -24.8125,0 -45,20.1875 -45,45 z m 45,-15 c 8.26953,0 15,6.73047 15,15 0,8.26953 -6.73047,15 -15,15 -8.26953,0 -15,-6.73047 -15,-15 0,-8.26953 6.73047,-15 15,-15 z m 0,0"
         id="path4140" />
      <path
         style="fill:#ffffff"
         d="m 362,405 c 0,24.8125 20.1875,45 45,45 24.8125,0 45,-20.1875 45,-45 0,-24.8125 -20.1875,-45 -45,-45 -24.8125,0 -45,20.1875 -45,45 z m 45,-15 c 8.26953,0 15,6.73047 15,15 0,8.26953 -6.73047,15 -15,15 -8.26953,0 -15,-6.73047 -15,-15 0,-8.26953 6.73047,-15 15,-15 z m 0,0"
         id="path4142" />
    </g>
  </g>
</svg>
